# xmcd
#
# Track frame offsets: 
#        150
#        14996
#        27312
#        46183
#        61784
#        83410
#        94709
#        111787
#
# Disc length: 1638 seconds
#
# Revision: 0
# Processed by: cddbd v1.5.2PL0 Copyright (c) Steve Scherf et al.
# Submitted via: ExactAudioCopy v1.0b6
#
DISCID=59066408
DTITLE=The Farmer and Adele - Into The Wide Open Sky
DYEAR=2015
DGENRE=Swing
TTITLE0=Wrong Day
TTITLE1=Saddle Up Song
TTITLE2=What Would It Be Like
TTITLE3=Gone Long Gone
TTITLE4=A Gool For Loving You
TTITLE5=Too In Love
TTITLE6=Join The Dance
TTITLE7=Words of Wisdom
EXTD=
EXTT0=
EXTT1=
EXTT2=
EXTT3=
EXTT4=
EXTT5=
EXTT6=
EXTT7=
PLAYORDER=
